<svg xmlns="http://www.w3.org/2000/svg" xmlns:xlink="http://www.w3.org/1999/xlink" id="Layer_1" width="50" height="50" x="0" y="0" enable-background="new 0 0 50 50" version="1.1" viewBox="0 0 50 50" xml:space="preserve"><g><path fill="#FFF" d="M37.468,17.123C37.468,29.596,25,45.346,25,45.346s-12.468-14.93-12.468-28.223 c0-6.885,5.581-12.468,12.468-12.468C31.885,4.655,37.468,10.237,37.468,17.123z"/></g><g><path fill="#333" d="M26.901,12.559c0.034,1.046-0.732,1.885-1.954,1.885c-1.083,0-1.85-0.838-1.85-1.885 c0-1.082,0.804-1.92,1.918-1.92C26.169,10.639,26.901,11.478,26.901,12.559z M23.464,29.063l0.017-11.757h3.072l-0.018,11.757 H23.464z"/></g></svg>