<?xml version="1.0" encoding="utf-8"?>
<!-- Generator: Adobe Illustrator 16.0.0, SVG Export Plug-In . SVG Version: 6.00 Build 0)  -->
<!DOCTYPE svg PUBLIC "-//W3C//DTD SVG 1.1//EN" "http://www.w3.org/Graphics/SVG/1.1/DTD/svg11.dtd">
<svg version="1.1" id="Layer_1" xmlns="http://www.w3.org/2000/svg" xmlns:xlink="http://www.w3.org/1999/xlink" x="0px" y="0px"
	 width="30px" height="30px" viewBox="0 0 30 30" enable-background="new 0 0 30 30" xml:space="preserve">
<path fill="#333333" d="M25.004,15c0,0.807-0.75,1.461-1.676,1.461H6.671c-0.925,0-1.674-0.654-1.674-1.461l0,0
	c0-0.807,0.749-1.461,1.674-1.461h16.657C24.254,13.539,25.004,14.193,25.004,15L25.004,15z"/>
<path fill="#333333" d="M25.004,20.706c0,0.807-0.75,1.461-1.676,1.461H6.671c-0.925,0-1.674-0.654-1.674-1.461l0,0
	c0-0.807,0.749-1.461,1.674-1.461h16.657C24.254,19.245,25.004,19.899,25.004,20.706L25.004,20.706z"/>
<path fill="#333333" d="M25.004,9.294c0,0.806-0.75,1.46-1.676,1.46H6.671c-0.925,0-1.674-0.654-1.674-1.46l0,0
	c0-0.807,0.749-1.461,1.674-1.461h16.657C24.254,7.833,25.004,8.487,25.004,9.294L25.004,9.294z"/>
</svg>
