<?xml version="1.0" encoding="utf-8"?>
<!-- Generator: Adobe Illustrator 16.0.0, SVG Export Plug-In . SVG Version: 6.00 Build 0)  -->
<!DOCTYPE svg PUBLIC "-//W3C//DTD SVG 1.1//EN" "http://www.w3.org/Graphics/SVG/1.1/DTD/svg11.dtd">
<svg version="1.1" id="Layer_1" xmlns="http://www.w3.org/2000/svg" xmlns:xlink="http://www.w3.org/1999/xlink" x="0px" y="0px"
	 width="30px" height="30px" viewBox="0 0 30 30" enable-background="new 0 0 30 30" xml:space="preserve">
<g>
	<g>
		<path fill="#333333" d="M19.674,15.998L15,25.749l-4.674-9.751h2.479l1.293,2.698L15,20.578l0.902-1.881l1.293-2.698H19.674
			 M21.263,14.998h-4.697L15,18.264l-1.565-3.266H8.737L15,28.063L21.263,14.998L21.263,14.998z"/>
	</g>
	<g>
		<polygon fill="#333333" points="16.88,14.502 15,10.579 13.12,14.502 9.531,14.502 15,3.094 20.469,14.502 		"/>
		<path fill="#333333" d="M15,4.251l4.674,9.751h-2.479l-1.293-2.698L15,9.422l-0.902,1.881l-1.293,2.698h-2.479L15,4.251 M15,1.938
			L8.737,15.002h4.697L15,11.736l1.565,3.266h4.697L15,1.938L15,1.938z"/>
	</g>
</g>
</svg>
