<?xml version="1.0" encoding="utf-8"?>
<!-- Generator: Adobe Illustrator 16.0.0, SVG Export Plug-In . SVG Version: 6.00 Build 0)  -->
<!DOCTYPE svg PUBLIC "-//W3C//DTD SVG 1.1//EN" "http://www.w3.org/Graphics/SVG/1.1/DTD/svg11.dtd">
<svg version="1.1" id="Layer_1" xmlns="http://www.w3.org/2000/svg" xmlns:xlink="http://www.w3.org/1999/xlink" x="0px" y="0px"
	 width="30px" height="30px" viewBox="0 0 30 30" enable-background="new 0 0 30 30" xml:space="preserve">
<path fill="#333333" d="M24.187,15.349c0.8-0.141,1.183-0.315,0.861-2.14c-0.32-1.827-0.732-1.831-1.536-1.691l-1.56,0.275
	c-0.197-0.429-0.434-0.836-0.704-1.218l1.02-1.215c0.52-0.621,0.705-1.001-0.716-2.192c-1.42-1.193-1.737-0.933-2.262-0.308
	l-1.022,1.217c-0.421-0.199-0.862-0.359-1.321-0.48v-1.59c-0.002-0.811-0.106-1.221-1.96-1.221c-1.854,0-1.93,0.403-1.93,1.221
	v1.589c-0.459,0.12-0.899,0.28-1.32,0.479l-1.021-1.216C10.193,6.238,9.85,5.991,8.43,7.182c-1.421,1.192-1.219,1.55-0.696,2.175
	l1.019,1.215c-0.271,0.383-0.505,0.79-0.703,1.219L6.49,11.515c-0.798-0.14-1.22-0.109-1.542,1.717
	c-0.323,1.827,0.062,1.971,0.866,2.114l1.559,0.275c0.039,0.476,0.123,0.938,0.244,1.385l-1.371,0.792
	c-0.701,0.405-1.004,0.701-0.077,2.307c0.927,1.606,1.315,1.469,2.022,1.063l1.365-0.787c0.332,0.335,0.695,0.637,1.083,0.907
	l-0.54,1.481c-0.277,0.761-0.319,1.181,1.422,1.816c1.743,0.635,1.952,0.28,2.232-0.486l0.539-1.479
	c0.233,0.02,0.469,0.035,0.708,0.035c0.238,0,0.472-0.016,0.707-0.035l0.537,1.481c0.279,0.761,0.517,1.108,2.257,0.475
	c1.743-0.632,1.677-1.038,1.398-1.805l-0.538-1.482c0.388-0.271,0.752-0.572,1.083-0.907l1.366,0.789
	c0.699,0.405,1.106,0.519,2.033-1.086c0.929-1.606,0.616-1.873-0.089-2.283l-1.371-0.791c0.122-0.448,0.206-0.912,0.245-1.388
	L24.187,15.349z M15,19.492c-2.484,0-4.498-2.013-4.498-4.497c0-2.483,2.013-4.497,4.498-4.497s4.496,2.014,4.496,4.497
	C19.496,17.48,17.484,19.492,15,19.492z"/>
</svg>
